<svg width="2450" height="1051" viewBox="0 0 2450 1051" fill="none" xmlns="http://www.w3.org/2000/svg">
<path d="M1070.96 888.077L445.804 512.668L982.061 18.5223L1939.17 88.5704L1994.09 625.802L1070.96 888.077Z" fill="#0439FF" stroke="black"/>
<path d="M1160.37 331.227V261.84H1217.63V275.98H1178.44V289.009H1212.68V302.846H1178.44V317.087H1218.34V331.227H1160.37ZM1243.41 331.227L1223.41 278H1241.09L1247.85 298.301C1248.19 299.311 1248.63 300.792 1249.17 302.745C1249.71 304.63 1250.28 306.617 1250.88 308.704C1251.49 310.724 1252.03 312.609 1252.5 314.36H1253.11C1253.58 312.744 1254.08 310.926 1254.62 308.906C1255.23 306.886 1255.8 304.933 1256.34 303.048C1256.88 301.095 1257.35 299.513 1257.75 298.301L1264.42 278H1280.88L1260.78 331.227H1243.41ZM1313.22 332.439C1307.3 332.439 1302.21 331.429 1297.97 329.409C1293.8 327.389 1290.57 324.325 1288.28 320.218C1286.05 316.043 1284.94 310.825 1284.94 304.563C1284.94 298.301 1286.05 293.116 1288.28 289.009C1290.57 284.902 1293.8 281.838 1297.97 279.818C1302.21 277.798 1307.3 276.788 1313.22 276.788C1319.22 276.788 1324.3 277.798 1328.47 279.818C1332.72 281.838 1335.95 284.902 1338.17 289.009C1340.46 293.116 1341.6 298.301 1341.6 304.563C1341.6 310.825 1340.46 316.043 1338.17 320.218C1335.95 324.325 1332.72 327.389 1328.47 329.409C1324.3 331.429 1319.22 332.439 1313.22 332.439ZM1313.22 320.42C1315.98 320.42 1318.21 319.881 1319.89 318.804C1321.64 317.727 1322.89 316.178 1323.63 314.158C1324.43 312.071 1324.84 309.512 1324.84 306.482V302.745C1324.84 299.715 1324.43 297.156 1323.63 295.069C1322.89 292.982 1321.64 291.433 1319.89 290.423C1318.21 289.346 1315.98 288.807 1313.22 288.807C1310.53 288.807 1308.31 289.346 1306.56 290.423C1304.87 291.433 1303.63 292.982 1302.82 295.069C1302.08 297.156 1301.71 299.715 1301.71 302.745V306.482C1301.71 309.512 1302.08 312.071 1302.82 314.158C1303.63 316.178 1304.87 317.727 1306.56 318.804C1308.31 319.881 1310.53 320.42 1313.22 320.42ZM1351.58 331.227V258.103H1368.14V331.227H1351.58ZM1398.35 332.439C1392.63 332.439 1388.18 330.857 1385.02 327.692C1381.92 324.527 1380.37 319.679 1380.37 313.148V278H1396.94V310.825C1396.94 312.239 1397.11 313.485 1397.44 314.562C1397.85 315.639 1398.38 316.548 1399.06 317.289C1399.73 318.03 1400.57 318.568 1401.58 318.905C1402.66 319.242 1403.81 319.41 1405.02 319.41C1406.97 319.41 1408.69 318.972 1410.17 318.097C1411.65 317.154 1412.83 315.909 1413.7 314.36C1414.58 312.744 1415.02 310.993 1415.02 309.108V278H1431.58V331.227H1417.95L1416.94 323.652H1416.23C1415.02 325.403 1413.47 326.951 1411.58 328.298C1409.76 329.645 1407.71 330.655 1405.42 331.328C1403.2 332.069 1400.84 332.439 1398.35 332.439ZM1469.34 332.439C1463.49 332.439 1458.5 331.429 1454.4 329.409C1450.29 327.389 1447.12 324.325 1444.9 320.218C1442.75 316.043 1441.67 310.825 1441.67 304.563C1441.67 298.301 1442.78 293.116 1445 289.009C1447.23 284.834 1450.39 281.737 1454.5 279.717C1458.6 277.697 1463.55 276.687 1469.34 276.687C1473.12 276.687 1476.58 277.125 1479.75 278C1482.98 278.875 1485.77 280.222 1488.13 282.04C1490.55 283.858 1492.41 286.147 1493.69 288.908C1494.96 291.669 1495.6 294.968 1495.6 298.806H1479.34C1479.34 296.517 1478.94 294.631 1478.13 293.15C1477.39 291.669 1476.28 290.558 1474.8 289.817C1473.32 289.076 1471.47 288.706 1469.24 288.706C1466.68 288.706 1464.6 289.245 1462.98 290.322C1461.43 291.399 1460.29 292.982 1459.55 295.069C1458.81 297.156 1458.44 299.749 1458.44 302.846V306.482C1458.44 309.512 1458.81 312.071 1459.55 314.158C1460.29 316.245 1461.5 317.828 1463.18 318.905C1464.87 319.915 1467.02 320.42 1469.65 320.42C1471.94 320.42 1473.82 320.083 1475.3 319.41C1476.85 318.669 1478.03 317.558 1478.84 316.077C1479.65 314.528 1480.05 312.609 1480.05 310.32H1495.6C1495.6 314.023 1494.96 317.289 1493.69 320.117C1492.41 322.878 1490.59 325.167 1488.23 326.985C1485.87 328.803 1483.08 330.183 1479.85 331.126C1476.62 332.001 1473.12 332.439 1469.34 332.439ZM1469.04 351.225C1467.02 351.225 1464.9 351.09 1462.68 350.821C1460.46 350.619 1458.6 350.316 1457.12 349.912V344.559H1467.12C1468.4 344.559 1469.41 344.424 1470.15 344.155C1470.89 343.886 1471.26 343.246 1471.26 342.236C1471.26 341.361 1470.99 340.721 1470.46 340.317C1469.92 339.98 1468.87 339.812 1467.32 339.812H1463.08L1464.8 328.601H1473.69L1472.78 334.358C1474.26 334.493 1475.67 334.829 1477.02 335.368C1478.43 335.974 1479.58 336.816 1480.45 337.893C1481.33 339.038 1481.77 340.519 1481.77 342.337C1481.77 344.155 1481.33 345.636 1480.45 346.781C1479.65 347.993 1478.57 348.902 1477.22 349.508C1475.94 350.114 1474.56 350.552 1473.08 350.821C1471.67 351.09 1470.32 351.225 1469.04 351.225ZM1520.89 332.439C1518.66 332.439 1516.48 332.203 1514.32 331.732C1512.23 331.328 1510.31 330.587 1508.56 329.51C1506.88 328.365 1505.53 326.817 1504.52 324.864C1503.51 322.911 1503.01 320.454 1503.01 317.491C1503.01 313.653 1503.82 310.522 1505.43 308.098C1507.05 305.674 1509.37 303.789 1512.4 302.442C1515.5 301.028 1519.2 300.052 1523.51 299.513C1527.89 298.974 1532.77 298.705 1538.16 298.705V295.372C1538.16 293.823 1537.85 292.544 1537.25 291.534C1536.64 290.457 1535.73 289.649 1534.52 289.11C1533.38 288.504 1531.83 288.201 1529.87 288.201C1528.12 288.201 1526.58 288.403 1525.23 288.807C1523.95 289.211 1522.97 289.817 1522.3 290.625C1521.63 291.366 1521.29 292.275 1521.29 293.352V294.261H1505.13C1505.06 293.924 1505.03 293.655 1505.03 293.453C1505.03 293.184 1505.03 292.847 1505.03 292.443C1505.03 289.278 1506 286.518 1507.96 284.161C1509.98 281.804 1512.84 279.986 1516.54 278.707C1520.25 277.428 1524.72 276.788 1529.98 276.788C1534.89 276.788 1539.17 277.394 1542.8 278.606C1546.51 279.818 1549.4 281.67 1551.49 284.161C1553.64 286.652 1554.72 289.918 1554.72 293.958V316.683C1554.72 317.828 1555.02 318.737 1555.63 319.41C1556.3 320.083 1557.11 320.42 1558.05 320.42H1561.49V330.621C1560.75 330.958 1559.57 331.328 1557.95 331.732C1556.4 332.203 1554.52 332.439 1552.3 332.439C1550.01 332.439 1547.99 332.136 1546.24 331.53C1544.55 330.991 1543.14 330.217 1541.99 329.207C1540.92 328.13 1540.18 326.884 1539.77 325.47H1539.07C1537.79 326.817 1536.27 328.029 1534.52 329.106C1532.84 330.183 1530.85 330.991 1528.56 331.53C1526.34 332.136 1523.78 332.439 1520.89 332.439ZM1527.05 321.026C1528.66 321.026 1530.14 320.79 1531.49 320.319C1532.84 319.848 1533.98 319.208 1534.92 318.4C1535.93 317.525 1536.71 316.481 1537.25 315.269C1537.85 314.057 1538.16 312.744 1538.16 311.33V307.795C1534.32 307.795 1531.02 308.064 1528.26 308.603C1525.5 309.142 1523.38 309.983 1521.9 311.128C1520.41 312.273 1519.67 313.72 1519.67 315.471C1519.67 316.75 1519.98 317.828 1520.58 318.703C1521.26 319.511 1522.13 320.117 1523.21 320.521C1524.29 320.858 1525.57 321.026 1527.05 321.026ZM1510.08 271.435C1510.08 269.146 1510.52 266.991 1511.39 264.971C1512.33 262.951 1513.71 261.335 1515.53 260.123C1517.35 258.844 1519.54 258.204 1522.1 258.204C1524.05 258.204 1525.9 258.541 1527.65 259.214C1529.47 259.82 1531.19 260.46 1532.8 261.133C1534.49 261.739 1536.2 262.042 1537.95 262.042C1539.03 262.042 1539.94 261.705 1540.68 261.032C1541.42 260.359 1541.93 259.416 1542.2 258.204H1549.77C1549.77 260.493 1549.3 262.648 1548.36 264.668C1547.41 266.621 1546.03 268.237 1544.22 269.516C1542.47 270.795 1540.31 271.435 1537.75 271.435C1535.8 271.435 1533.91 271.132 1532.1 270.526C1530.35 269.853 1528.63 269.213 1526.95 268.607C1525.33 267.934 1523.65 267.597 1521.9 267.597C1520.82 267.597 1519.91 267.934 1519.17 268.607C1518.43 269.28 1517.92 270.223 1517.65 271.435H1510.08ZM1594.03 332.439C1588.11 332.439 1583.02 331.429 1578.78 329.409C1574.61 327.389 1571.37 324.325 1569.08 320.218C1566.86 316.043 1565.75 310.825 1565.75 304.563C1565.75 298.301 1566.86 293.116 1569.08 289.009C1571.37 284.902 1574.61 281.838 1578.78 279.818C1583.02 277.798 1588.11 276.788 1594.03 276.788C1600.02 276.788 1605.11 277.798 1609.28 279.818C1613.52 281.838 1616.76 284.902 1618.98 289.009C1621.27 293.116 1622.41 298.301 1622.41 304.563C1622.41 310.825 1621.27 316.043 1618.98 320.218C1616.76 324.325 1613.52 327.389 1609.28 329.409C1605.11 331.429 1600.02 332.439 1594.03 332.439ZM1594.03 320.42C1596.79 320.42 1599.01 319.881 1600.7 318.804C1602.45 317.727 1603.69 316.178 1604.43 314.158C1605.24 312.071 1605.65 309.512 1605.65 306.482V302.745C1605.65 299.715 1605.24 297.156 1604.43 295.069C1603.69 292.982 1602.45 291.433 1600.7 290.423C1599.01 289.346 1596.79 288.807 1594.03 288.807C1591.34 288.807 1589.12 289.346 1587.36 290.423C1585.68 291.433 1584.44 292.982 1583.63 295.069C1582.89 297.156 1582.52 299.715 1582.52 302.745V306.482C1582.52 309.512 1582.89 312.071 1583.63 314.158C1584.44 316.178 1585.68 317.727 1587.36 318.804C1589.12 319.881 1591.34 320.42 1594.03 320.42ZM1670.91 332.439C1666.4 332.439 1662.5 331.429 1659.2 329.409C1655.9 327.389 1653.37 324.325 1651.62 320.218C1649.87 316.111 1649 310.859 1649 304.462C1649 298.2 1649.87 293.049 1651.62 289.009C1653.44 284.902 1655.97 281.838 1659.2 279.818C1662.43 277.798 1666.23 276.788 1670.61 276.788C1672.7 276.788 1674.68 277.024 1676.57 277.495C1678.52 277.966 1680.24 278.707 1681.72 279.717C1683.27 280.727 1684.58 281.973 1685.66 283.454H1686.27V258.103H1702.83V331.227H1689.3L1688.08 323.854H1687.38C1685.56 326.749 1683.24 328.904 1680.41 330.318C1677.58 331.732 1674.42 332.439 1670.91 332.439ZM1676.06 319.511C1678.49 319.511 1680.44 318.972 1681.92 317.895C1683.47 316.75 1684.58 315.168 1685.26 313.148C1686 311.061 1686.37 308.637 1686.37 305.876V303.452C1686.37 301.432 1686.16 299.58 1685.76 297.897C1685.36 296.214 1684.75 294.766 1683.94 293.554C1683.13 292.342 1682.06 291.399 1680.71 290.726C1679.43 290.053 1677.88 289.716 1676.06 289.716C1673.57 289.716 1671.55 290.221 1670 291.231C1668.52 292.241 1667.45 293.722 1666.77 295.675C1666.1 297.628 1665.76 300.052 1665.76 302.947V306.482C1665.76 309.31 1666.1 311.7 1666.77 313.653C1667.45 315.606 1668.52 317.087 1670 318.097C1671.55 319.04 1673.57 319.511 1676.06 319.511ZM1730.28 332.439C1728.06 332.439 1725.87 332.203 1723.72 331.732C1721.63 331.328 1719.71 330.587 1717.96 329.51C1716.28 328.365 1714.93 326.817 1713.92 324.864C1712.91 322.911 1712.41 320.454 1712.41 317.491C1712.41 313.653 1713.21 310.522 1714.83 308.098C1716.45 305.674 1718.77 303.789 1721.8 302.442C1724.9 301.028 1728.6 300.052 1732.91 299.513C1737.29 298.974 1742.17 298.705 1747.55 298.705V295.372C1747.55 293.823 1747.25 292.544 1746.64 291.534C1746.04 290.457 1745.13 289.649 1743.92 289.11C1742.77 288.504 1741.22 288.201 1739.27 288.201C1737.52 288.201 1735.97 288.403 1734.63 288.807C1733.35 289.211 1732.37 289.817 1731.7 290.625C1731.02 291.366 1730.69 292.275 1730.69 293.352V294.261H1714.53C1714.46 293.924 1714.43 293.655 1714.43 293.453C1714.43 293.184 1714.43 292.847 1714.43 292.443C1714.43 289.278 1715.4 286.518 1717.35 284.161C1719.37 281.804 1722.24 279.986 1725.94 278.707C1729.64 277.428 1734.12 276.788 1739.37 276.788C1744.29 276.788 1748.56 277.394 1752.2 278.606C1755.9 279.818 1758.8 281.67 1760.89 284.161C1763.04 286.652 1764.12 289.918 1764.12 293.958V316.683C1764.12 317.828 1764.42 318.737 1765.03 319.41C1765.7 320.083 1766.51 320.42 1767.45 320.42H1770.88V330.621C1770.14 330.958 1768.97 331.328 1767.35 331.732C1765.8 332.203 1763.92 332.439 1761.69 332.439C1759.4 332.439 1757.38 332.136 1755.63 331.53C1753.95 330.991 1752.54 330.217 1751.39 329.207C1750.31 328.13 1749.57 326.884 1749.17 325.47H1748.46C1747.18 326.817 1745.67 328.029 1743.92 329.106C1742.23 330.183 1740.25 330.991 1737.96 331.53C1735.74 332.136 1733.18 332.439 1730.28 332.439ZM1736.44 321.026C1738.06 321.026 1739.54 320.79 1740.89 320.319C1742.23 319.848 1743.38 319.208 1744.32 318.4C1745.33 317.525 1746.11 316.481 1746.64 315.269C1747.25 314.057 1747.55 312.744 1747.55 311.33V307.795C1743.72 307.795 1740.42 308.064 1737.66 308.603C1734.9 309.142 1732.77 309.983 1731.29 311.128C1729.81 312.273 1729.07 313.72 1729.07 315.471C1729.07 316.75 1729.37 317.828 1729.98 318.703C1730.65 319.511 1731.53 320.117 1732.61 320.521C1733.68 320.858 1734.96 321.026 1736.44 321.026Z" fill="white"/>
<path d="M1136.18 455.237C1129.79 455.237 1124.2 454.261 1119.42 452.308C1114.64 450.288 1110.87 447.258 1108.1 443.218C1105.41 439.178 1103.93 434.061 1103.66 427.866C1103.59 425.105 1103.56 422.143 1103.56 418.978C1103.56 415.813 1103.59 412.783 1103.66 409.888C1103.93 403.828 1105.45 398.778 1108.21 394.738C1111.03 390.631 1114.84 387.567 1119.62 385.547C1124.47 383.527 1129.99 382.517 1136.18 382.517C1140.63 382.517 1144.77 383.056 1148.61 384.133C1152.51 385.143 1155.98 386.725 1159.01 388.88C1162.04 390.967 1164.43 393.593 1166.18 396.758C1167.93 399.855 1168.84 403.491 1168.91 407.666C1168.91 408.272 1168.67 408.777 1168.2 409.181C1167.8 409.585 1167.29 409.787 1166.68 409.787H1149.62C1148.61 409.787 1147.87 409.585 1147.39 409.181C1146.92 408.777 1146.52 408.07 1146.18 407.06C1145.31 404.165 1144.03 402.212 1142.34 401.202C1140.66 400.192 1138.61 399.687 1136.18 399.687C1133.22 399.687 1130.86 400.495 1129.11 402.111C1127.36 403.66 1126.42 406.42 1126.28 410.393C1126.08 415.914 1126.08 421.57 1126.28 427.361C1126.42 431.334 1127.36 434.128 1129.11 435.744C1130.86 437.293 1133.22 438.067 1136.18 438.067C1138.61 438.067 1140.66 437.528 1142.34 436.451C1144.09 435.374 1145.37 433.455 1146.18 430.694C1146.45 429.617 1146.82 428.91 1147.29 428.573C1147.83 428.169 1148.61 427.967 1149.62 427.967H1166.68C1167.29 427.967 1167.8 428.169 1168.2 428.573C1168.67 428.977 1168.91 429.482 1168.91 430.088C1168.84 434.263 1167.93 437.932 1166.18 441.097C1164.43 444.194 1162.04 446.82 1159.01 448.975C1155.98 451.062 1152.51 452.645 1148.61 453.722C1144.77 454.732 1140.63 455.237 1136.18 455.237ZM1208.68 455.237C1202.21 455.237 1196.59 454.227 1191.81 452.207C1187.1 450.187 1183.36 447.157 1180.6 443.117C1177.91 439.01 1176.46 433.926 1176.26 427.866C1176.19 425.038 1176.16 422.143 1176.16 419.18C1176.16 416.15 1176.19 413.154 1176.26 410.191C1176.46 404.198 1177.91 399.148 1180.6 395.041C1183.36 390.934 1187.13 387.836 1191.91 385.749C1196.69 383.594 1202.28 382.517 1208.68 382.517C1215.01 382.517 1220.56 383.594 1225.34 385.749C1230.12 387.836 1233.89 390.934 1236.66 395.041C1239.42 399.148 1240.86 404.198 1241 410.191C1241.13 413.154 1241.2 416.15 1241.2 419.18C1241.2 422.143 1241.13 425.038 1241 427.866C1240.8 433.926 1239.31 439.01 1236.55 443.117C1233.86 447.157 1230.12 450.187 1225.34 452.207C1220.63 454.227 1215.07 455.237 1208.68 455.237ZM1208.68 438.067C1211.51 438.067 1213.83 437.225 1215.65 435.542C1217.47 433.791 1218.41 431.031 1218.48 427.26C1218.61 424.365 1218.68 421.57 1218.68 418.877C1218.68 416.116 1218.61 413.322 1218.48 410.494C1218.41 408.003 1217.94 405.949 1217.06 404.333C1216.25 402.717 1215.11 401.539 1213.63 400.798C1212.21 400.057 1210.56 399.687 1208.68 399.687C1206.79 399.687 1205.11 400.057 1203.63 400.798C1202.15 401.539 1200.97 402.717 1200.09 404.333C1199.29 405.949 1198.85 408.003 1198.78 410.494C1198.71 413.322 1198.68 416.116 1198.68 418.877C1198.68 421.57 1198.71 424.365 1198.78 427.26C1198.91 431.031 1199.86 433.791 1201.61 435.542C1203.43 437.225 1205.78 438.067 1208.68 438.067ZM1254.29 454.227C1253.55 454.227 1252.91 453.991 1252.37 453.52C1251.83 452.981 1251.56 452.342 1251.56 451.601V386.153C1251.56 385.412 1251.83 384.806 1252.37 384.335C1252.91 383.796 1253.55 383.527 1254.29 383.527H1267.72C1268.93 383.527 1269.84 383.864 1270.45 384.537C1271.05 385.21 1271.46 385.682 1271.66 385.951L1287.82 414.029L1303.98 385.951C1304.18 385.682 1304.58 385.21 1305.19 384.537C1305.8 383.864 1306.7 383.527 1307.92 383.527H1321.35C1322.09 383.527 1322.7 383.796 1323.17 384.335C1323.71 384.806 1323.98 385.412 1323.98 386.153V451.601C1323.98 452.342 1323.71 452.981 1323.17 453.52C1322.7 453.991 1322.09 454.227 1321.35 454.227H1306.2C1305.46 454.227 1304.82 453.991 1304.28 453.52C1303.81 452.981 1303.57 452.342 1303.57 451.601V418.877L1294.48 434.835C1294.15 435.374 1293.71 435.912 1293.17 436.451C1292.63 436.99 1291.86 437.259 1290.85 437.259H1284.69C1283.74 437.259 1283 436.99 1282.46 436.451C1281.93 435.912 1281.49 435.374 1281.15 434.835L1272.06 418.877V451.601C1272.06 452.342 1271.79 452.981 1271.25 453.52C1270.78 453.991 1270.18 454.227 1269.44 454.227H1254.29ZM1339.21 454.227C1338.53 454.227 1337.93 453.991 1337.39 453.52C1336.85 452.981 1336.58 452.342 1336.58 451.601V386.153C1336.58 385.412 1336.85 384.806 1337.39 384.335C1337.93 383.796 1338.53 383.527 1339.21 383.527H1368.7C1374.56 383.527 1379.64 384.402 1383.95 386.153C1388.33 387.904 1391.73 390.563 1394.15 394.132C1396.57 397.701 1397.79 402.178 1397.79 407.565C1397.79 412.952 1396.57 417.396 1394.15 420.897C1391.73 424.331 1388.33 426.856 1383.95 428.472C1379.64 430.088 1374.56 430.896 1368.7 430.896H1359.1V451.601C1359.1 452.342 1358.83 452.981 1358.3 453.52C1357.82 453.991 1357.22 454.227 1356.48 454.227H1339.21ZM1358.7 414.635H1368.19C1370.15 414.635 1371.8 414.063 1373.14 412.918C1374.56 411.706 1375.26 409.854 1375.26 407.363C1375.26 405.478 1374.72 403.761 1373.65 402.212C1372.57 400.663 1370.75 399.889 1368.19 399.889H1358.7V414.635ZM1437.42 455.237C1431.16 455.237 1425.64 454.261 1420.86 452.308C1416.14 450.355 1412.44 447.325 1409.75 443.218C1407.12 439.043 1405.81 433.791 1405.81 427.462V386.153C1405.81 385.412 1406.08 384.806 1406.61 384.335C1407.15 383.796 1407.76 383.527 1408.43 383.527H1424.9C1425.64 383.527 1426.24 383.796 1426.71 384.335C1427.25 384.806 1427.52 385.412 1427.52 386.153V427.159C1427.52 430.593 1428.36 433.185 1430.05 434.936C1431.73 436.687 1434.15 437.562 1437.32 437.562C1440.48 437.562 1442.87 436.687 1444.49 434.936C1446.17 433.185 1447.01 430.593 1447.01 427.159V386.153C1447.01 385.412 1447.28 384.806 1447.82 384.335C1448.36 383.796 1449 383.527 1449.74 383.527H1466.1C1466.84 383.527 1467.45 383.796 1467.92 384.335C1468.46 384.806 1468.73 385.412 1468.73 386.153V427.462C1468.73 433.791 1467.42 439.043 1464.79 443.218C1462.16 447.325 1458.49 450.355 1453.78 452.308C1449.07 454.261 1443.61 455.237 1437.42 455.237ZM1499.06 454.227C1498.32 454.227 1497.68 453.991 1497.14 453.52C1496.67 452.981 1496.44 452.342 1496.44 451.601V402.313H1479.06C1478.32 402.313 1477.68 402.077 1477.15 401.606C1476.67 401.067 1476.44 400.428 1476.44 399.687V386.153C1476.44 385.412 1476.67 384.806 1477.15 384.335C1477.68 383.796 1478.32 383.527 1479.06 383.527H1535.83C1536.57 383.527 1537.17 383.796 1537.64 384.335C1538.18 384.806 1538.45 385.412 1538.45 386.153V399.687C1538.45 400.428 1538.18 401.067 1537.64 401.606C1537.17 402.077 1536.57 402.313 1535.83 402.313H1518.45V451.601C1518.45 452.342 1518.19 452.981 1517.65 453.52C1517.18 453.991 1516.57 454.227 1515.83 454.227H1499.06ZM1535.93 454.227C1535.32 454.227 1534.79 454.025 1534.31 453.621C1533.91 453.15 1533.71 452.611 1533.71 452.005C1533.71 451.736 1533.78 451.5 1533.91 451.298L1556.94 386.658C1557.14 385.917 1557.58 385.21 1558.25 384.537C1558.99 383.864 1559.97 383.527 1561.18 383.527H1579.66C1580.94 383.527 1581.92 383.864 1582.59 384.537C1583.27 385.21 1583.7 385.917 1583.91 386.658L1607.03 451.298C1607.1 451.5 1607.14 451.736 1607.14 452.005C1607.14 452.611 1606.9 453.15 1606.43 453.621C1606.02 454.025 1605.52 454.227 1604.91 454.227H1589.36C1588.22 454.227 1587.37 453.958 1586.83 453.419C1586.3 452.88 1585.93 452.375 1585.72 451.904L1582.59 443.42H1558.25L1555.12 451.904C1554.92 452.375 1554.55 452.88 1554.01 453.419C1553.54 453.958 1552.7 454.227 1551.48 454.227H1535.93ZM1562.9 426.351H1577.95L1570.37 403.626L1562.9 426.351ZM1642.26 476.447C1640.51 476.447 1638.89 476.144 1637.41 475.538C1635.93 474.932 1634.88 474.225 1634.28 473.417C1633.67 472.609 1633.7 471.902 1634.38 471.296L1636.4 469.579C1637 469.04 1637.51 468.838 1637.91 468.973C1638.32 469.108 1638.82 469.343 1639.43 469.68C1640.1 470.017 1641.04 470.185 1642.26 470.185C1643.2 470.185 1643.94 469.916 1644.48 469.377C1645.08 468.838 1645.39 468.199 1645.39 467.458C1645.39 466.717 1645.12 466.078 1644.58 465.539C1644.04 465 1643.27 464.731 1642.26 464.731C1641.58 464.731 1640.88 464.832 1640.14 465.034C1639.46 465.236 1638.82 465.337 1638.22 465.337C1637.68 465.404 1637.17 465.236 1636.7 464.832L1634.68 462.812C1634.21 462.341 1633.97 461.869 1633.97 461.398C1633.97 460.994 1634.18 460.354 1634.58 459.479L1636.6 454.833C1631.35 454.227 1626.8 452.88 1622.97 450.793C1619.13 448.638 1616.1 445.676 1613.88 441.905C1611.72 438.067 1610.51 433.387 1610.24 427.866C1610.17 425.105 1610.14 422.143 1610.14 418.978C1610.14 415.813 1610.17 412.783 1610.24 409.888C1610.51 403.828 1612.02 398.778 1614.78 394.738C1617.61 390.631 1621.42 387.567 1626.2 385.547C1631.05 383.527 1636.57 382.517 1642.76 382.517C1647.21 382.517 1651.35 383.056 1655.18 384.133C1659.09 385.143 1662.56 386.725 1665.59 388.88C1668.62 390.967 1671.01 393.593 1672.76 396.758C1674.51 399.855 1675.42 403.491 1675.49 407.666C1675.49 408.272 1675.25 408.777 1674.78 409.181C1674.37 409.585 1673.87 409.787 1673.26 409.787H1656.19C1655.18 409.787 1654.44 409.585 1653.97 409.181C1653.5 408.777 1653.1 408.07 1652.76 407.06C1651.88 404.165 1650.61 402.212 1648.92 401.202C1647.24 400.192 1645.19 399.687 1642.76 399.687C1639.8 399.687 1637.44 400.495 1635.69 402.111C1633.94 403.66 1633 406.42 1632.86 410.393C1632.66 415.914 1632.66 421.57 1632.86 427.361C1633 431.334 1633.94 434.128 1635.69 435.744C1637.44 437.293 1639.8 438.067 1642.76 438.067C1645.19 438.067 1647.24 437.528 1648.92 436.451C1650.67 435.374 1651.95 433.455 1652.76 430.694C1653.03 429.617 1653.4 428.91 1653.87 428.573C1654.41 428.169 1655.18 427.967 1656.19 427.967H1673.26C1673.87 427.967 1674.37 428.169 1674.78 428.573C1675.25 428.977 1675.49 429.482 1675.49 430.088C1675.42 434.263 1674.51 437.932 1672.76 441.097C1671.01 444.194 1668.62 446.82 1665.59 448.975C1662.56 451.062 1659.09 452.645 1655.18 453.722C1651.35 454.732 1647.21 455.237 1642.76 455.237L1640.84 458.974C1641.25 458.839 1641.78 458.705 1642.46 458.57C1643.2 458.503 1643.74 458.469 1644.07 458.469C1646.57 458.469 1648.52 459.277 1649.93 460.893C1651.41 462.576 1652.15 464.731 1652.15 467.357C1652.15 470.05 1651.25 472.239 1649.43 473.922C1647.68 475.605 1645.29 476.447 1642.26 476.447ZM1680.13 454.227C1679.53 454.227 1678.99 454.025 1678.52 453.621C1678.11 453.15 1677.91 452.611 1677.91 452.005C1677.91 451.736 1677.98 451.5 1678.11 451.298L1701.14 386.658C1701.34 385.917 1701.78 385.21 1702.45 384.537C1703.19 383.864 1704.17 383.527 1705.38 383.527H1723.86C1725.14 383.527 1726.12 383.864 1726.79 384.537C1727.47 385.21 1727.9 385.917 1728.11 386.658L1751.24 451.298C1751.3 451.5 1751.34 451.736 1751.34 452.005C1751.34 452.611 1751.1 453.15 1750.63 453.621C1750.23 454.025 1749.72 454.227 1749.11 454.227H1733.56C1732.42 454.227 1731.57 453.958 1731.04 453.419C1730.5 452.88 1730.13 452.375 1729.92 451.904L1726.79 443.42H1702.45L1699.32 451.904C1699.12 452.375 1698.75 452.88 1698.21 453.419C1697.74 453.958 1696.9 454.227 1695.69 454.227H1680.13ZM1707.1 426.351H1722.15L1714.57 403.626L1707.1 426.351ZM1721.14 378.982C1719.19 378.982 1717.57 378.679 1716.29 378.073C1715.08 377.467 1713.97 376.861 1712.96 376.255C1711.95 375.649 1710.84 375.346 1709.62 375.346C1708.61 375.346 1707.87 375.615 1707.4 376.154C1707 376.625 1706.63 377.13 1706.29 377.669C1705.95 378.208 1705.42 378.477 1704.67 378.477H1697.4C1696.93 378.477 1696.49 378.309 1696.09 377.972C1695.75 377.568 1695.58 377.13 1695.58 376.659C1695.58 375.582 1695.79 374.235 1696.19 372.619C1696.59 371.003 1697.27 369.421 1698.21 367.872C1699.15 366.256 1700.43 364.943 1702.05 363.933C1703.66 362.856 1705.68 362.317 1708.11 362.317C1710.06 362.317 1711.64 362.62 1712.86 363.226C1714.14 363.832 1715.28 364.438 1716.29 365.044C1717.3 365.65 1718.41 365.953 1719.62 365.953C1720.63 365.953 1721.34 365.684 1721.74 365.145C1722.15 364.606 1722.52 364.101 1722.85 363.63C1723.26 363.091 1723.83 362.822 1724.57 362.822H1731.84C1732.45 362.822 1732.89 363.024 1733.16 363.428C1733.49 363.765 1733.66 364.169 1733.66 364.64C1733.66 365.785 1733.46 367.165 1733.06 368.781C1732.65 370.33 1731.98 371.912 1731.04 373.528C1730.09 375.077 1728.81 376.39 1727.2 377.467C1725.58 378.477 1723.56 378.982 1721.14 378.982ZM1786.96 455.237C1780.5 455.237 1774.88 454.227 1770.1 452.207C1765.38 450.187 1761.64 447.157 1758.88 443.117C1756.19 439.01 1754.74 433.926 1754.54 427.866C1754.47 425.038 1754.44 422.143 1754.44 419.18C1754.44 416.15 1754.47 413.154 1754.54 410.191C1754.74 404.198 1756.19 399.148 1758.88 395.041C1761.64 390.934 1765.42 387.836 1770.2 385.749C1774.98 383.594 1780.57 382.517 1786.96 382.517C1793.29 382.517 1798.85 383.594 1803.63 385.749C1808.41 387.836 1812.18 390.934 1814.94 395.041C1817.7 399.148 1819.15 404.198 1819.28 410.191C1819.42 413.154 1819.48 416.15 1819.48 419.18C1819.48 422.143 1819.42 425.038 1819.28 427.866C1819.08 433.926 1817.6 439.01 1814.84 443.117C1812.14 447.157 1808.41 450.187 1803.63 452.207C1798.91 454.227 1793.36 455.237 1786.96 455.237ZM1786.96 438.067C1789.79 438.067 1792.11 437.225 1793.93 435.542C1795.75 433.791 1796.69 431.031 1796.76 427.26C1796.89 424.365 1796.96 421.57 1796.96 418.877C1796.96 416.116 1796.89 413.322 1796.76 410.494C1796.69 408.003 1796.22 405.949 1795.35 404.333C1794.54 402.717 1793.39 401.539 1791.91 400.798C1790.5 400.057 1788.85 399.687 1786.96 399.687C1785.08 399.687 1783.39 400.057 1781.91 400.798C1780.43 401.539 1779.25 402.717 1778.38 404.333C1777.57 405.949 1777.13 408.003 1777.06 410.494C1777 413.322 1776.96 416.116 1776.96 418.877C1776.96 421.57 1777 424.365 1777.06 427.26C1777.2 431.031 1778.14 433.791 1779.89 435.542C1781.71 437.225 1784.07 438.067 1786.96 438.067ZM1266.29 575.237C1259.62 575.237 1253.9 574.227 1249.12 572.207C1244.34 570.12 1240.6 567.022 1237.91 562.915C1235.21 558.808 1233.76 553.724 1233.56 547.664C1233.5 544.836 1233.46 541.806 1233.46 538.574C1233.46 535.275 1233.5 532.177 1233.56 529.282C1233.76 523.424 1235.21 518.509 1237.91 514.536C1240.67 510.563 1244.47 507.567 1249.32 505.547C1254.17 503.527 1259.82 502.517 1266.29 502.517C1271.47 502.517 1276.08 503.123 1280.12 504.335C1284.16 505.547 1287.6 507.197 1290.43 509.284C1293.32 511.371 1295.51 513.728 1296.99 516.354C1298.54 518.913 1299.35 521.572 1299.41 524.333C1299.41 524.939 1299.18 525.478 1298.71 525.949C1298.3 526.353 1297.8 526.555 1297.19 526.555H1278.61C1277.94 526.555 1277.4 526.454 1276.99 526.252C1276.59 525.983 1276.22 525.646 1275.88 525.242C1275.55 524.569 1275.01 523.794 1274.27 522.919C1273.59 522.044 1272.62 521.303 1271.34 520.697C1270.06 520.024 1268.37 519.687 1266.29 519.687C1263.12 519.687 1260.66 520.495 1258.91 522.111C1257.16 523.727 1256.22 526.286 1256.09 529.787C1255.88 535.443 1255.88 541.234 1256.09 547.159C1256.22 550.997 1257.2 553.791 1259.01 555.542C1260.9 557.225 1263.43 558.067 1266.59 558.067C1268.68 558.067 1270.53 557.73 1272.14 557.057C1273.83 556.384 1275.14 555.34 1276.08 553.926C1277.03 552.445 1277.5 550.559 1277.5 548.27V547.26H1270.33C1269.59 547.26 1268.95 546.991 1268.41 546.452C1267.94 545.913 1267.7 545.307 1267.7 544.634V535.241C1267.7 534.5 1267.94 533.894 1268.41 533.423C1268.95 532.884 1269.59 532.615 1270.33 532.615H1296.89C1297.63 532.615 1298.27 532.884 1298.81 533.423C1299.35 533.894 1299.62 534.5 1299.62 535.241V547.563C1299.62 553.488 1298.2 558.505 1295.37 562.612C1292.55 566.719 1288.64 569.85 1283.66 572.005C1278.68 574.16 1272.89 575.237 1266.29 575.237ZM1312.48 574.227C1311.8 574.227 1311.2 573.991 1310.66 573.52C1310.12 572.981 1309.85 572.342 1309.85 571.601V506.153C1309.85 505.412 1310.12 504.806 1310.66 504.335C1311.2 503.796 1311.8 503.527 1312.48 503.527H1341.26C1350.42 503.527 1357.59 505.614 1362.77 509.789C1368.03 513.964 1370.65 519.788 1370.65 527.262C1370.65 531.975 1369.58 535.982 1367.42 539.281C1365.27 542.58 1362.44 545.173 1358.94 547.058L1372.07 570.894C1372.27 571.298 1372.37 571.668 1372.37 572.005C1372.37 572.611 1372.17 573.15 1371.76 573.621C1371.36 574.025 1370.85 574.227 1370.25 574.227H1353.18C1351.9 574.227 1350.92 573.924 1350.25 573.318C1349.58 572.645 1349.14 572.039 1348.94 571.5L1338.84 550.694H1331.57V571.601C1331.57 572.342 1331.3 572.981 1330.76 573.52C1330.29 573.991 1329.68 574.227 1328.94 574.227H1312.48ZM1331.57 534.029H1341.16C1343.52 534.029 1345.27 533.389 1346.41 532.11C1347.56 530.763 1348.13 529.114 1348.13 527.161C1348.13 525.141 1347.56 523.424 1346.41 522.01C1345.34 520.596 1343.58 519.889 1341.16 519.889H1331.57V534.029ZM1377.63 574.227C1377.02 574.227 1376.48 574.025 1376.01 573.621C1375.61 573.15 1375.4 572.611 1375.4 572.005C1375.4 571.736 1375.47 571.5 1375.61 571.298L1398.63 506.658C1398.84 505.917 1399.27 505.21 1399.95 504.537C1400.69 503.864 1401.66 503.527 1402.88 503.527H1421.36C1422.64 503.527 1423.61 503.864 1424.29 504.537C1424.96 505.21 1425.4 505.917 1425.6 506.658L1448.73 571.298C1448.8 571.5 1448.83 571.736 1448.83 572.005C1448.83 572.611 1448.59 573.15 1448.12 573.621C1447.72 574.025 1447.21 574.227 1446.61 574.227H1431.05C1429.91 574.227 1429.07 573.958 1428.53 573.419C1427.99 572.88 1427.62 572.375 1427.42 571.904L1424.29 563.42H1399.95L1396.82 571.904C1396.61 572.375 1396.24 572.88 1395.7 573.419C1395.23 573.958 1394.39 574.227 1393.18 574.227H1377.63ZM1404.59 546.351H1419.64L1412.07 523.626L1404.59 546.351ZM1404.29 498.477C1403.21 498.477 1402.67 497.938 1402.67 496.861C1402.67 496.322 1402.84 495.885 1403.18 495.548L1412.67 483.933C1413.35 483.125 1413.92 482.62 1414.39 482.418C1414.93 482.149 1415.6 482.014 1416.41 482.014H1433.38C1434.66 482.014 1435.3 482.687 1435.3 484.034C1435.3 484.505 1435.13 484.909 1434.79 485.246L1420.65 496.861C1420.11 497.332 1419.54 497.736 1418.93 498.073C1418.4 498.342 1417.62 498.477 1416.61 498.477H1404.29ZM1458.16 574.227C1457.48 574.227 1456.88 573.991 1456.34 573.52C1455.8 572.981 1455.53 572.342 1455.53 571.601V506.153C1455.53 505.412 1455.8 504.806 1456.34 504.335C1456.88 503.796 1457.48 503.527 1458.16 503.527H1506.84C1507.58 503.527 1508.22 503.796 1508.76 504.335C1509.3 504.806 1509.57 505.412 1509.57 506.153V518.98C1509.57 519.653 1509.3 520.259 1508.76 520.798C1508.22 521.337 1507.58 521.606 1506.84 521.606H1476.84V532.716H1504.82C1505.56 532.716 1506.2 532.985 1506.74 533.524C1507.28 533.995 1507.55 534.601 1507.55 535.342V548.068C1507.55 548.809 1507.28 549.448 1506.74 549.987C1506.2 550.458 1505.56 550.694 1504.82 550.694H1476.84V571.601C1476.84 572.342 1476.57 572.981 1476.03 573.52C1475.56 573.991 1474.96 574.227 1474.22 574.227H1458.16ZM1521.97 574.227C1521.3 574.227 1520.69 573.991 1520.15 573.52C1519.62 572.981 1519.35 572.342 1519.35 571.601V506.153C1519.35 505.412 1519.62 504.806 1520.15 504.335C1520.69 503.796 1521.3 503.527 1521.97 503.527H1539.14C1539.88 503.527 1540.49 503.796 1540.96 504.335C1541.5 504.806 1541.77 505.412 1541.77 506.153V571.601C1541.77 572.342 1541.5 572.981 1540.96 573.52C1540.49 573.991 1539.88 574.227 1539.14 574.227H1521.97ZM1584.76 575.237C1578.37 575.237 1572.78 574.261 1568 572.308C1563.22 570.288 1559.45 567.258 1556.69 563.218C1553.99 559.178 1552.51 554.061 1552.24 547.866C1552.18 545.105 1552.14 542.143 1552.14 538.978C1552.14 535.813 1552.18 532.783 1552.24 529.888C1552.51 523.828 1554.03 518.778 1556.79 514.738C1559.62 510.631 1563.42 507.567 1568.2 505.547C1573.05 503.527 1578.57 502.517 1584.76 502.517C1589.21 502.517 1593.35 503.056 1597.19 504.133C1601.09 505.143 1604.56 506.725 1607.59 508.88C1610.62 510.967 1613.01 513.593 1614.76 516.758C1616.51 519.855 1617.42 523.491 1617.49 527.666C1617.49 528.272 1617.25 528.777 1616.78 529.181C1616.38 529.585 1615.87 529.787 1615.27 529.787H1598.2C1597.19 529.787 1596.45 529.585 1595.98 529.181C1595.5 528.777 1595.1 528.07 1594.76 527.06C1593.89 524.165 1592.61 522.212 1590.93 521.202C1589.24 520.192 1587.19 519.687 1584.76 519.687C1581.8 519.687 1579.45 520.495 1577.69 522.111C1575.94 523.66 1575 526.42 1574.87 530.393C1574.66 535.914 1574.66 541.57 1574.87 547.361C1575 551.334 1575.94 554.128 1577.69 555.744C1579.45 557.293 1581.8 558.067 1584.76 558.067C1587.19 558.067 1589.24 557.528 1590.93 556.451C1592.68 555.374 1593.96 553.455 1594.76 550.694C1595.03 549.617 1595.4 548.91 1595.87 548.573C1596.41 548.169 1597.19 547.967 1598.2 547.967H1615.27C1615.87 547.967 1616.38 548.169 1616.78 548.573C1617.25 548.977 1617.49 549.482 1617.49 550.088C1617.42 554.263 1616.51 557.932 1614.76 561.097C1613.01 564.194 1610.62 566.82 1607.59 568.975C1604.56 571.062 1601.09 572.645 1597.19 573.722C1593.35 574.732 1589.21 575.237 1584.76 575.237ZM1622.14 574.227C1621.53 574.227 1620.99 574.025 1620.52 573.621C1620.12 573.15 1619.91 572.611 1619.91 572.005C1619.91 571.736 1619.98 571.5 1620.12 571.298L1643.14 506.658C1643.35 505.917 1643.78 505.21 1644.46 504.537C1645.2 503.864 1646.17 503.527 1647.39 503.527H1665.87C1667.15 503.527 1668.12 503.864 1668.8 504.537C1669.47 505.21 1669.91 505.917 1670.11 506.658L1693.24 571.298C1693.31 571.5 1693.34 571.736 1693.34 572.005C1693.34 572.611 1693.11 573.15 1692.63 573.621C1692.23 574.025 1691.72 574.227 1691.12 574.227H1675.56C1674.42 574.227 1673.58 573.958 1673.04 573.419C1672.5 572.88 1672.13 572.375 1671.93 571.904L1668.8 563.42H1644.46L1641.33 571.904C1641.12 572.375 1640.75 572.88 1640.21 573.419C1639.74 573.958 1638.9 574.227 1637.69 574.227H1622.14ZM1649.1 546.351H1664.15L1656.58 523.626L1649.1 546.351Z" fill="#FEC901"/>
<path d="M602 146H846V663H602V146Z" fill="#E3800B"/>
<path d="M712.538 597.685L737.849 727.766L596.946 662.495L712.538 597.685Z" fill="#E3800B"/>
<path d="M988.282 210.135L829.606 211.791L844.477 143.047L988.282 210.135Z" fill="#E3800B"/>
<rect x="731.07" y="206.376" width="255.428" height="521.07" fill="#FE8A01" stroke="black" stroke-width="9"/>
<line x1="599.949" y1="144.944" x2="728.949" y2="206.944" stroke="black" stroke-width="9"/>
<line x1="847.811" y1="144.881" x2="988.811" y2="206.881" stroke="black" stroke-width="9"/>
<line x1="600" y1="662.969" x2="731.701" y2="728.302" stroke="black" stroke-width="9"/>
<line x1="602" y1="149" x2="601.995" y2="668.872" stroke="black" stroke-width="8"/>
<line x1="851.503" y1="145.227" x2="601.996" y2="144.999" stroke="black" stroke-width="8"/>
<path d="M47 648H204V684H47V648Z" fill="#EAA010"/>
<path d="M163.791 701.933L64.3512 684.455L227.858 623.901L163.791 701.933Z" fill="#EAA010"/>
<path d="M4.99983 292.227H162V640.227H4.99983V292.227Z" fill="#FEC901"/>
<path d="M143.219 213.45L269.604 316.478L2.9198 296.539L143.219 213.45Z" fill="#FEC901"/>
<path d="M185.745 665.325L3.18199 637.251L224.781 484.788L185.745 665.325Z" fill="#FEC901"/>
<line x1="45.6637" y1="685.776" x2="162.717" y2="703.235" stroke="black" stroke-width="9"/>
<rect x="165.825" y="615.148" width="416.754" height="88.0379" fill="white" stroke="black" stroke-width="9"/>
<rect x="165.825" y="615.148" width="416.754" height="88.0379" fill="#EAA010" stroke="black" stroke-width="9"/>
<line x1="50.0931" y1="645.834" x2="49.9974" y2="684.237" stroke="black" stroke-width="8"/>
<line x1="5.70376" y1="641.782" x2="148.687" y2="664.426" stroke="black" stroke-width="9"/>
<rect x="152.482" y="211.228" width="522.283" height="453.143" fill="white" stroke="black" stroke-width="9"/>
<rect x="152.482" y="211.228" width="522.283" height="453.143" fill="#FEC901" stroke="black" stroke-width="9"/>
<rect x="207.066" y="260.96" width="419.18" height="363.383" rx="18.5" fill="#0B3CF4" stroke="black" stroke-width="9"/>
<line x1="2.78738" y1="294.309" x2="149.787" y2="211.309" stroke="black" stroke-width="9"/>
<line x1="3.99967" y1="290.382" x2="7.63859" y2="645.783" stroke="black" stroke-width="8"/>
<path d="M211.068 753.652L213.797 783.802L182.059 762.314L211.068 753.652Z" fill="#EAA010"/>
<path d="M183.578 711.283L224.564 747.109L179.367 765.556L183.578 711.283Z" fill="#EAA010"/>
<path d="M204 702H710V759H204V702Z" fill="#FEC901"/>
<path d="M222.278 709.436L205.15 739.886L187.915 703.131L222.278 709.436Z" fill="#FEC901"/>
<path d="M729.923 741.539L704.817 767.219L709.955 711.688L729.923 741.539Z" fill="#FEC901"/>
<rect x="207.067" y="750.324" width="524.709" height="32.2411" fill="#EAA010" stroke="black" stroke-width="9"/>
<line x1="183.431" y1="705.996" x2="207.911" y2="749.001" stroke="black" stroke-width="9"/>
<line x1="177.226" y1="763.955" x2="205.557" y2="783.524" stroke="black" stroke-width="9"/>
<path d="M709 702L733 748.227" stroke="black" stroke-width="9"/>
<line x1="179.5" y1="705.251" x2="179.168" y2="767.682" stroke="black" stroke-width="9"/>
<line x1="186.798" y1="703.722" x2="713.229" y2="703.722" stroke="black" stroke-width="9"/>
</svg>
